<svg width="205" height="53" viewBox="0 0 205 53" fill="none" xmlns="http://www.w3.org/2000/svg">
<path d="M36.1856 3.94201L45.0928 19.3067C38.4124 13.1608 33.4021 17.4776 31.732 20.4042C29.134 24.6112 23.3814 34.013 21.1546 37.9639C18.9278 41.9148 15.0309 43.6342 13.3608 44H0C6.30928 33.0252 19.4845 10.0879 21.7113 6.13697C24.4948 1.19832 27.2783 -0.447899 30.6186 0.10084C33.2907 0.539831 35.4433 2.84453 36.1856 3.94201Z" fill="white"/>
<path d="M46.2062 44H32.2887C39.5258 30.8303 42.3093 28.6353 45.0928 28.6353C47.8763 28.6353 54 28.6353 54 35.7689C54 41.4758 48.8041 43.6342 46.2062 44Z" fill="white"/>
<path d="M63.4453 34.6836L69.0703 34.1367C69.4089 36.0247 70.0924 37.4115 71.1211 38.2969C72.1628 39.1823 73.5625 39.625 75.3203 39.625C77.1823 39.625 78.582 39.2344 79.5195 38.4531C80.4701 37.6589 80.9453 36.7344 80.9453 35.6797C80.9453 35.0026 80.7435 34.4297 80.3398 33.9609C79.9492 33.4792 79.2591 33.0625 78.2695 32.7109C77.5924 32.4766 76.0495 32.0599 73.6406 31.4609C70.5417 30.6927 68.3672 29.7487 67.1172 28.6289C65.3594 27.0534 64.4805 25.1328 64.4805 22.8672C64.4805 21.4089 64.8906 20.0482 65.7109 18.7852C66.5443 17.5091 67.7357 16.5391 69.2852 15.875C70.8477 15.2109 72.7292 14.8789 74.9297 14.8789C78.5234 14.8789 81.2253 15.6667 83.0352 17.2422C84.8581 18.8177 85.8151 20.9206 85.9062 23.5508L80.125 23.8047C79.8776 22.3333 79.3438 21.2786 78.5234 20.6406C77.7161 19.9896 76.4987 19.6641 74.8711 19.6641C73.1914 19.6641 71.8763 20.0091 70.9258 20.6992C70.3138 21.1419 70.0078 21.7344 70.0078 22.4766C70.0078 23.1536 70.2943 23.7331 70.8672 24.2148C71.5964 24.8268 73.3672 25.4648 76.1797 26.1289C78.9922 26.793 81.069 27.4831 82.4102 28.1992C83.7643 28.9023 84.819 29.8724 85.5742 31.1094C86.3424 32.3333 86.7266 33.8503 86.7266 35.6602C86.7266 37.3008 86.2708 38.8372 85.3594 40.2695C84.4479 41.7018 83.1589 42.7695 81.4922 43.4727C79.8255 44.1628 77.7487 44.5078 75.2617 44.5078C71.6419 44.5078 68.862 43.6745 66.9219 42.0078C64.9818 40.3281 63.8229 37.8867 63.4453 34.6836ZM91.668 44V15.3672H97.4492V28.082L109.129 15.3672H116.902L106.121 26.5195L117.488 44H110.008L102.137 30.5625L97.4492 35.3477V44H91.668ZM146.316 44H140.027L137.527 37.4961H126.082L123.719 44H117.586L128.738 15.3672H134.852L146.316 44ZM135.672 32.6719L131.727 22.0469L127.859 32.6719H135.672ZM149.422 44V15.3672H161.59C164.65 15.3672 166.87 15.6276 168.25 16.1484C169.643 16.6562 170.757 17.5677 171.59 18.8828C172.423 20.1979 172.84 21.7018 172.84 23.3945C172.84 25.543 172.208 27.3203 170.945 28.7266C169.682 30.1198 167.794 30.9987 165.281 31.3633C166.531 32.0924 167.56 32.8932 168.367 33.7656C169.188 34.638 170.288 36.1875 171.668 38.4141L175.164 44H168.25L164.07 37.7695C162.586 35.543 161.57 34.1432 161.023 33.5703C160.477 32.9844 159.897 32.5872 159.285 32.3789C158.673 32.1576 157.703 32.0469 156.375 32.0469H155.203V44H149.422ZM155.203 27.4766H159.48C162.254 27.4766 163.986 27.3594 164.676 27.125C165.366 26.8906 165.906 26.487 166.297 25.9141C166.688 25.3411 166.883 24.625 166.883 23.7656C166.883 22.8021 166.622 22.0273 166.102 21.4414C165.594 20.8424 164.871 20.4648 163.934 20.3086C163.465 20.2435 162.059 20.2109 159.715 20.2109H155.203V27.4766ZM204.129 44H197.84L195.34 37.4961H183.895L181.531 44H175.398L186.551 15.3672H192.664L204.129 44ZM193.484 32.6719L189.539 22.0469L185.672 32.6719H193.484Z" fill="white"/>
</svg>
