<svg width="634" height="519" viewBox="0 0 634 519" fill="none" xmlns="http://www.w3.org/2000/svg">
<path d="M424.845 46.4978L529.423 227.731C450.99 155.238 392.165 206.156 372.557 240.677C342.055 290.301 274.515 401.198 248.371 447.801C222.227 494.404 176.474 514.685 156.866 519H0C74.0756 389.547 228.763 118.991 254.907 72.3883C287.588 14.1347 320.268 -5.28318 359.484 1.18945C390.858 6.36755 416.131 33.5526 424.845 46.4978Z" fill="white" fill-opacity="0.2"/>
<path d="M542.495 519H379.093C464.062 363.657 496.914 341.116 529.423 337.766C561.893 334.421 634 337.766 634 421.911C634 489.226 572.997 514.685 542.495 519Z" fill="white" fill-opacity="0.2"/>
</svg>
