<svg width="252" height="68" viewBox="0 0 252 68" fill="none" xmlns="http://www.w3.org/2000/svg">
<path d="M46.9072 5.1067L58.4536 25.011C49.7938 17.0492 43.299 22.6414 41.134 26.4327C37.7663 31.8827 30.3093 44.0622 27.4227 49.1805C24.5361 54.2987 19.4845 56.5261 17.3196 57H0C8.17869 42.7827 25.2577 13.0684 28.1443 7.95016C31.7526 1.55237 35.3608 -0.580233 39.6907 0.130633C43.1546 0.699326 45.945 3.68497 46.9072 5.1067Z" fill="url(#paint0_linear_146_1305)"/>
<path d="M59.8969 57H41.8557C51.2371 39.9392 54.8454 37.0957 58.4536 37.0957C62.0619 37.0957 70 37.0957 70 46.337C70 53.73 63.2646 56.5261 59.8969 57Z" fill="url(#paint1_linear_146_1305)"/>
<path d="M82.7344 45.8203L89.4844 45.1641C89.8906 47.4297 90.7109 49.0938 91.9453 50.1562C93.1953 51.2188 94.875 51.75 96.9844 51.75C99.2188 51.75 100.898 51.2812 102.023 50.3438C103.164 49.3906 103.734 48.2812 103.734 47.0156C103.734 46.2031 103.492 45.5156 103.008 44.9531C102.539 44.375 101.711 43.875 100.523 43.4531C99.7109 43.1719 97.8594 42.6719 94.9688 41.9531C91.25 41.0312 88.6406 39.8984 87.1406 38.5547C85.0312 36.6641 83.9766 34.3594 83.9766 31.6406C83.9766 29.8906 84.4688 28.2578 85.4531 26.7422C86.4531 25.2109 87.8828 24.0469 89.7422 23.25C91.6172 22.4531 93.875 22.0547 96.5156 22.0547C100.828 22.0547 104.07 23 106.242 24.8906C108.43 26.7812 109.578 29.3047 109.688 32.4609L102.75 32.7656C102.453 31 101.812 29.7344 100.828 28.9688C99.8594 28.1875 98.3984 27.7969 96.4453 27.7969C94.4297 27.7969 92.8516 28.2109 91.7109 29.0391C90.9766 29.5703 90.6094 30.2812 90.6094 31.1719C90.6094 31.9844 90.9531 32.6797 91.6406 33.2578C92.5156 33.9922 94.6406 34.7578 98.0156 35.5547C101.391 36.3516 103.883 37.1797 105.492 38.0391C107.117 38.8828 108.383 40.0469 109.289 41.5312C110.211 43 110.672 44.8203 110.672 46.9922C110.672 48.9609 110.125 50.8047 109.031 52.5234C107.938 54.2422 106.391 55.5234 104.391 56.3672C102.391 57.1953 99.8984 57.6094 96.9141 57.6094C92.5703 57.6094 89.2344 56.6094 86.9062 54.6094C84.5781 52.5938 83.1875 49.6641 82.7344 45.8203ZM116.602 57V22.6406H123.539V37.8984L137.555 22.6406H146.883L133.945 36.0234L147.586 57H138.609L129.164 40.875L123.539 46.6172V57H116.602ZM182.18 57H174.633L171.633 49.1953H157.898L155.062 57H147.703L161.086 22.6406H168.422L182.18 57ZM169.406 43.4062L164.672 30.6562L160.031 43.4062H169.406ZM185.906 57V22.6406H200.508C204.18 22.6406 206.844 22.9531 208.5 23.5781C210.172 24.1875 211.508 25.2812 212.508 26.8594C213.508 28.4375 214.008 30.2422 214.008 32.2734C214.008 34.8516 213.25 36.9844 211.734 38.6719C210.219 40.3438 207.953 41.3984 204.938 41.8359C206.438 42.7109 207.672 43.6719 208.641 44.7188C209.625 45.7656 210.945 47.625 212.602 50.2969L216.797 57H208.5L203.484 49.5234C201.703 46.8516 200.484 45.1719 199.828 44.4844C199.172 43.7812 198.477 43.3047 197.742 43.0547C197.008 42.7891 195.844 42.6562 194.25 42.6562H192.844V57H185.906ZM192.844 37.1719H197.977C201.305 37.1719 203.383 37.0312 204.211 36.75C205.039 36.4688 205.688 35.9844 206.156 35.2969C206.625 34.6094 206.859 33.75 206.859 32.7188C206.859 31.5625 206.547 30.6328 205.922 29.9297C205.312 29.2109 204.445 28.7578 203.32 28.5703C202.758 28.4922 201.07 28.4531 198.258 28.4531H192.844V37.1719ZM251.555 57H244.008L241.008 49.1953H227.273L224.438 57H217.078L230.461 22.6406H237.797L251.555 57ZM238.781 43.4062L234.047 30.6562L229.406 43.4062H238.781Z" fill="url(#paint2_linear_146_1305)"/>
<defs>
<linearGradient id="paint0_linear_146_1305" x1="0" y1="28.5" x2="70" y2="28.5" gradientUnits="userSpaceOnUse">
<stop stop-color="#0E185F"/>
<stop offset="1" stop-color="#2FA4FF"/>
</linearGradient>
<linearGradient id="paint1_linear_146_1305" x1="0" y1="28.5" x2="70" y2="28.5" gradientUnits="userSpaceOnUse">
<stop stop-color="#0E185F"/>
<stop offset="1" stop-color="#2FA4FF"/>
</linearGradient>
<linearGradient id="paint2_linear_146_1305" x1="81" y1="40.5" x2="252" y2="40.5" gradientUnits="userSpaceOnUse">
<stop stop-color="#0E185F"/>
<stop offset="1" stop-color="#2FA4FF"/>
</linearGradient>
</defs>
</svg>
