<svg width="589" height="813" viewBox="0 0 589 813" fill="none" xmlns="http://www.w3.org/2000/svg">
<g opacity="0.05">
<path d="M264.381 72.8376L426.691 356.735C304.959 243.176 213.66 322.938 183.227 377.014C135.887 454.748 31.0619 628.467 -9.51547 701.469C-50.0928 774.471 -121.103 806.241 -151.536 813H-395C-280.031 610.216 -39.9485 186.397 0.628876 113.394C51.3505 22.1416 102.072 -8.27596 162.938 1.86324C211.631 9.9746 250.856 52.5592 264.381 72.8376Z" fill="#737373"/>
<path d="M446.979 813H193.371C325.247 569.659 375.969 529.102 426.691 529.102C477.412 529.102 589 529.102 589 660.912C589 766.36 494.32 806.241 446.979 813Z" fill="#737373"/>
</g>
</svg>
