<svg width="13" height="13" viewBox="0 0 13 13" fill="none" xmlns="http://www.w3.org/2000/svg">
<path d="M11.7812 13H1.21875C0.544375 13 0 12.4556 0 11.7812V2.03125C0 1.35688 0.544375 0.8125 1.21875 0.8125H11.7812C12.4556 0.8125 13 1.35688 13 2.03125V11.7812C13 12.4556 12.4556 13 11.7812 13ZM1.21875 1.625C0.99125 1.625 0.8125 1.80375 0.8125 2.03125V11.7812C0.8125 12.0087 0.99125 12.1875 1.21875 12.1875H11.7812C12.0087 12.1875 12.1875 12.0087 12.1875 11.7812V2.03125C12.1875 1.80375 12.0087 1.625 11.7812 1.625H1.21875Z" fill="#737373"/>
<path d="M3.65625 3.25C3.42875 3.25 3.25 3.07125 3.25 2.84375V0.40625C3.25 0.17875 3.42875 0 3.65625 0C3.88375 0 4.0625 0.17875 4.0625 0.40625V2.84375C4.0625 3.07125 3.88375 3.25 3.65625 3.25ZM9.34375 3.25C9.11625 3.25 8.9375 3.07125 8.9375 2.84375V0.40625C8.9375 0.17875 9.11625 0 9.34375 0C9.57125 0 9.75 0.17875 9.75 0.40625V2.84375C9.75 3.07125 9.57125 3.25 9.34375 3.25ZM12.5938 4.875H0.40625C0.17875 4.875 0 4.69625 0 4.46875C0 4.24125 0.17875 4.0625 0.40625 4.0625H12.5938C12.8212 4.0625 13 4.24125 13 4.46875C13 4.69625 12.8212 4.875 12.5938 4.875Z" fill="#737373"/>
</svg>
