<svg width="188" height="58" viewBox="0 0 188 58" fill="none" xmlns="http://www.w3.org/2000/svg">
<path d="M41.5464 4.56915L51.7732 22.3782C44.1031 15.2546 38.3505 20.2581 36.433 23.6503C33.4502 28.5266 26.8454 39.4241 24.2887 44.0036C21.732 48.5831 17.2577 50.576 15.3402 51H0C7.24399 38.2792 22.3711 11.6928 24.9278 7.11331C28.1237 1.38896 31.3196 -0.519156 35.1546 0.116882C38.2227 0.625713 40.6942 3.29707 41.5464 4.56915Z" fill="white"/>
<path d="M53.0515 51H37.0722C45.3814 35.7351 48.5773 33.1909 51.7732 33.1909C54.9691 33.1909 62 33.1909 62 41.4594C62 48.0742 56.0344 50.576 53.0515 51Z" fill="white"/>
<path d="M75.1562 43.5469L79.6562 43.1094C79.9271 44.6198 80.474 45.7292 81.2969 46.4375C82.1302 47.1458 83.25 47.5 84.6562 47.5C86.1458 47.5 87.2656 47.1875 88.0156 46.5625C88.776 45.9271 89.1562 45.1875 89.1562 44.3438C89.1562 43.8021 88.9948 43.3438 88.6719 42.9688C88.3594 42.5833 87.8073 42.25 87.0156 41.9688C86.474 41.7812 85.2396 41.4479 83.3125 40.9688C80.8333 40.3542 79.0938 39.599 78.0938 38.7031C76.6875 37.4427 75.9844 35.9062 75.9844 34.0938C75.9844 32.9271 76.3125 31.8385 76.9688 30.8281C77.6354 29.8073 78.5885 29.0312 79.8281 28.5C81.0781 27.9688 82.5833 27.7031 84.3438 27.7031C87.2188 27.7031 89.3802 28.3333 90.8281 29.5938C92.2865 30.8542 93.0521 32.5365 93.125 34.6406L88.5 34.8438C88.3021 33.6667 87.875 32.8229 87.2188 32.3125C86.5729 31.7917 85.599 31.5312 84.2969 31.5312C82.9531 31.5312 81.901 31.8073 81.1406 32.3594C80.651 32.7135 80.4062 33.1875 80.4062 33.7812C80.4062 34.3229 80.6354 34.7865 81.0938 35.1719C81.6771 35.6615 83.0938 36.1719 85.3438 36.7031C87.5938 37.2344 89.2552 37.7865 90.3281 38.3594C91.4115 38.9219 92.2552 39.6979 92.8594 40.6875C93.474 41.6667 93.7812 42.8802 93.7812 44.3281C93.7812 45.6406 93.4167 46.8698 92.6875 48.0156C91.9583 49.1615 90.9271 50.0156 89.5938 50.5781C88.2604 51.1302 86.599 51.4062 84.6094 51.4062C81.7135 51.4062 79.4896 50.7396 77.9375 49.4062C76.3854 48.0625 75.4583 46.1094 75.1562 43.5469ZM97.7344 51V28.0938H102.359V38.2656L111.703 28.0938H117.922L109.297 37.0156L118.391 51H112.406L106.109 40.25L102.359 44.0781V51H97.7344ZM141.453 51H136.422L134.422 45.7969H125.266L123.375 51H118.469L127.391 28.0938H132.281L141.453 51ZM132.938 41.9375L129.781 33.4375L126.688 41.9375H132.938ZM143.938 51V28.0938H153.672C156.12 28.0938 157.896 28.3021 159 28.7188C160.115 29.125 161.005 29.8542 161.672 30.9062C162.339 31.9583 162.672 33.1615 162.672 34.5156C162.672 36.2344 162.167 37.6562 161.156 38.7812C160.146 39.8958 158.635 40.599 156.625 40.8906C157.625 41.474 158.448 42.1146 159.094 42.8125C159.75 43.5104 160.63 44.75 161.734 46.5312L164.531 51H159L155.656 46.0156C154.469 44.2344 153.656 43.1146 153.219 42.6562C152.781 42.1875 152.318 41.8698 151.828 41.7031C151.339 41.526 150.562 41.4375 149.5 41.4375H148.562V51H143.938ZM148.562 37.7812H151.984C154.203 37.7812 155.589 37.6875 156.141 37.5C156.693 37.3125 157.125 36.9896 157.438 36.5312C157.75 36.0729 157.906 35.5 157.906 34.8125C157.906 34.0417 157.698 33.4219 157.281 32.9531C156.875 32.474 156.297 32.1719 155.547 32.0469C155.172 31.9948 154.047 31.9688 152.172 31.9688H148.562V37.7812ZM187.703 51H182.672L180.672 45.7969H171.516L169.625 51H164.719L173.641 28.0938H178.531L187.703 51ZM179.188 41.9375L176.031 33.4375L172.938 41.9375H179.188Z" fill="white"/>
</svg>
