<svg width="47" height="40" viewBox="0 0 47 40" fill="none" xmlns="http://www.w3.org/2000/svg">
<path d="M14.1014 18.8235C16.5947 18.8235 18.9859 17.8319 20.7489 16.0669C22.5119 14.3018 23.5024 11.9079 23.5024 9.41177C23.5024 6.91561 22.5119 4.52169 20.7489 2.75664C18.9859 0.991593 16.5947 0 14.1014 0C11.6081 0 9.21696 0.991593 7.45394 2.75664C5.69092 4.52169 4.70047 6.91561 4.70047 9.41177C4.70047 11.9079 5.69092 14.3018 7.45394 16.0669C9.21696 17.8319 11.6081 18.8235 14.1014 18.8235ZM35.2535 18.8235C37.1235 18.8235 38.9169 18.0798 40.2391 16.7561C41.5614 15.4323 42.3042 13.6368 42.3042 11.7647C42.3042 9.89259 41.5614 8.09715 40.2391 6.77336C38.9169 5.44958 37.1235 4.70588 35.2535 4.70588C33.3836 4.70588 31.5902 5.44958 30.2679 6.77336C28.9457 8.09715 28.2028 9.89259 28.2028 11.7647C28.2028 13.6368 28.9457 15.4323 30.2679 16.7561C31.5902 18.0798 33.3836 18.8235 35.2535 18.8235ZM5.87559 23.5294C2.63226 23.5294 0 26.1647 0 29.4118C0 29.4118 0 40 14.1014 40C25.2791 40 27.5965 33.3459 28.0759 30.5882C28.2028 29.8682 28.2028 29.4118 28.2028 29.4118C28.2028 26.1647 25.5706 23.5294 22.3272 23.5294H5.87559ZM32.8845 31.0588C32.8751 31.2471 32.8563 31.4698 32.8281 31.7271C32.5687 33.6674 31.8954 35.5291 30.8539 37.1859C32.0995 37.4729 33.552 37.6471 35.2488 37.6471C47 37.6471 47 29.4118 47 29.4118C47 26.1647 44.3677 23.5294 41.1244 23.5294H31.1171C32.2452 25.2141 32.8986 27.2329 32.8986 29.4118V30.5882L32.8845 31.0588Z" fill="#0E185F"/>
</svg>
