<svg width="40" height="40" viewBox="0 0 40 40" fill="none" xmlns="http://www.w3.org/2000/svg">
<path fill-rule="evenodd" clip-rule="evenodd" d="M0.835488 1.56753H16.7098C17.1712 1.56753 17.5453 1.94157 17.5453 2.40302V18.2773C17.5453 18.7388 17.1712 19.1128 16.7098 19.1128H0.835488C0.374038 19.1128 0 18.7388 0 18.2773V2.40302C0 1.94157 0.374038 1.56753 0.835488 1.56753ZM30.3029 0.244694L39.7553 9.6972C40.0816 10.0235 40.0816 10.5524 39.7553 10.8787L30.3028 20.3312C29.9765 20.6575 29.4476 20.6575 29.1213 20.3312L19.6688 10.8787C19.3425 10.5524 19.3425 10.0235 19.6688 9.69715L29.1213 0.244694C29.4476 -0.0815646 29.9765 -0.0815646 30.3029 0.244694ZM0.835488 22.4547H16.7098C17.1712 22.4547 17.5453 22.8288 17.5453 23.2902V39.1645C17.5453 39.626 17.1712 40 16.7098 40H0.835488C0.374038 40 0 39.626 0 39.1645V23.2902C0 22.8288 0.374038 22.4547 0.835488 22.4547ZM21.7227 22.4547H37.597C38.0584 22.4547 38.4325 22.8288 38.4325 23.2902V39.1645C38.4325 39.626 38.0584 40 37.597 40H21.7227C21.2612 40 20.8872 39.626 20.8872 39.1645V23.2902C20.8872 22.8288 21.2612 22.4547 21.7227 22.4547Z" fill="#0E185F"/>
</svg>
