<svg width="47" height="40" viewBox="0 0 47 40" fill="none" xmlns="http://www.w3.org/2000/svg">
<path d="M39.4925 13.9385C41.3409 13.9385 43.1136 14.6728 44.4206 15.9798C45.7275 17.2868 46.4618 19.0594 46.4618 20.9078V27.8771C46.4618 29.7254 45.7275 31.4981 44.4206 32.8051C43.1136 34.1121 41.3409 34.8464 39.4925 34.8464V37.0905C39.4925 39.5529 36.6212 40.898 34.7302 39.3206L29.3592 34.8464H23.2309C21.3825 34.8464 19.6099 34.1121 18.3029 32.8051C16.9959 31.4981 16.2616 29.7254 16.2616 27.8771V20.9078C16.2616 19.0594 16.9959 17.2868 18.3029 15.9798C19.6099 14.6728 21.3825 13.9385 23.2309 13.9385H39.4925ZM32.5233 0C34.3716 0 36.1443 0.73426 37.4513 2.04125C38.7583 3.34824 39.4925 5.1209 39.4925 6.96927V9.29236H20.9078C18.4433 9.29236 16.0798 10.2714 14.3371 12.014C12.5945 13.7567 11.6155 16.1202 11.6154 18.5847V27.8771C11.6154 30.3024 12.5447 32.514 14.0686 34.168L11.6154 36.0079C9.70122 37.4436 6.96927 36.0776 6.96927 33.6848V30.2002C5.1209 30.2002 3.34824 29.4659 2.04125 28.1589C0.73426 26.8519 0 25.0793 0 23.2309V6.96927C0 5.1209 0.73426 3.34824 2.04125 2.04125C3.34824 0.73426 5.1209 0 6.96927 0H32.5233Z" fill="#0E185F"/>
</svg>
