<svg width="184" height="46" viewBox="0 0 184 46" fill="none" xmlns="http://www.w3.org/2000/svg">
<path d="M30.8247 3.40447L38.4124 16.674C32.7216 11.3661 28.4536 15.0943 27.0309 17.6218C24.8179 21.2551 19.9175 29.3748 18.0206 32.787C16.1237 36.1991 12.8041 37.6841 11.3814 38H0C5.37457 28.5218 16.5979 8.71227 18.4948 5.30011C20.866 1.03491 23.2371 -0.386822 26.0825 0.0870888C28.3588 0.466218 30.1924 2.45664 30.8247 3.40447Z" fill="url(#paint0_linear_29_486)"/>
<path d="M39.3608 38H27.5052C33.6701 26.6261 36.0412 24.7305 38.4124 24.7305C40.7835 24.7305 46 24.7305 46 30.8913C46 35.82 41.5739 37.6841 39.3608 38Z" fill="url(#paint1_linear_29_486)"/>
<path d="M56.3008 29.6152L61.3633 29.123C61.668 30.8223 62.2832 32.0703 63.209 32.8672C64.1465 33.6641 65.4062 34.0625 66.9883 34.0625C68.6641 34.0625 69.9238 33.7109 70.7676 33.0078C71.623 32.293 72.0508 31.4609 72.0508 30.5117C72.0508 29.9023 71.8691 29.3867 71.5059 28.9648C71.1543 28.5312 70.5332 28.1562 69.6426 27.8398C69.0332 27.6289 67.6445 27.2539 65.4766 26.7148C62.6875 26.0234 60.7305 25.1738 59.6055 24.166C58.0234 22.748 57.2324 21.0195 57.2324 18.9805C57.2324 17.668 57.6016 16.4434 58.3398 15.3066C59.0898 14.1582 60.1621 13.2852 61.5566 12.6875C62.9629 12.0898 64.6562 11.791 66.6367 11.791C69.8711 11.791 72.3027 12.5 73.9316 13.918C75.5723 15.3359 76.4336 17.2285 76.5156 19.5957L71.3125 19.8242C71.0898 18.5 70.6094 17.5508 69.8711 16.9766C69.1445 16.3906 68.0488 16.0977 66.584 16.0977C65.0723 16.0977 63.8887 16.4082 63.0332 17.0293C62.4824 17.4277 62.207 17.9609 62.207 18.6289C62.207 19.2383 62.4648 19.7598 62.9805 20.1934C63.6367 20.7441 65.2305 21.3184 67.7617 21.916C70.293 22.5137 72.1621 23.1348 73.3691 23.7793C74.5879 24.4121 75.5371 25.2852 76.2168 26.3984C76.9082 27.5 77.2539 28.8652 77.2539 30.4941C77.2539 31.9707 76.8438 33.3535 76.0234 34.6426C75.2031 35.9316 74.043 36.8926 72.543 37.5254C71.043 38.1465 69.1738 38.457 66.9355 38.457C63.6777 38.457 61.1758 37.707 59.4297 36.207C57.6836 34.6953 56.6406 32.498 56.3008 29.6152ZM81.7012 38V12.2305H86.9043V23.6738L97.416 12.2305H104.412L94.709 22.2676L104.939 38H98.207L91.123 25.9062L86.9043 30.2129V38H81.7012ZM130.885 38H125.225L122.975 32.1465H112.674L110.547 38H105.027L115.064 12.2305H120.566L130.885 38ZM121.305 27.8047L117.754 18.2422L114.273 27.8047H121.305ZM133.68 38V12.2305H144.631C147.385 12.2305 149.383 12.4648 150.625 12.9336C151.879 13.3906 152.881 14.2109 153.631 15.3945C154.381 16.5781 154.756 17.9316 154.756 19.4551C154.756 21.3887 154.188 22.9883 153.051 24.2539C151.914 25.5078 150.215 26.2988 147.953 26.627C149.078 27.2832 150.004 28.0039 150.73 28.7891C151.469 29.5742 152.459 30.9688 153.701 32.9727L156.848 38H150.625L146.863 32.3926C145.527 30.3887 144.613 29.1289 144.121 28.6133C143.629 28.0859 143.107 27.7285 142.557 27.541C142.006 27.3418 141.133 27.2422 139.938 27.2422H138.883V38H133.68ZM138.883 23.1289H142.732C145.229 23.1289 146.787 23.0234 147.408 22.8125C148.029 22.6016 148.516 22.2383 148.867 21.7227C149.219 21.207 149.395 20.5625 149.395 19.7891C149.395 18.9219 149.16 18.2246 148.691 17.6973C148.234 17.1582 147.584 16.8184 146.74 16.6777C146.318 16.6191 145.053 16.5898 142.943 16.5898H138.883V23.1289ZM182.916 38H177.256L175.006 32.1465H164.705L162.578 38H157.059L167.096 12.2305H172.598L182.916 38ZM173.336 27.8047L169.785 18.2422L166.305 27.8047H173.336Z" fill="url(#paint2_linear_29_486)"/>
<defs>
<linearGradient id="paint0_linear_29_486" x1="0" y1="19" x2="46" y2="19" gradientUnits="userSpaceOnUse">
<stop stop-color="#0E185F"/>
<stop offset="1" stop-color="#2FA4FF"/>
</linearGradient>
<linearGradient id="paint1_linear_29_486" x1="0" y1="19" x2="46" y2="19" gradientUnits="userSpaceOnUse">
<stop stop-color="#0E185F"/>
<stop offset="1" stop-color="#2FA4FF"/>
</linearGradient>
<linearGradient id="paint2_linear_29_486" x1="55" y1="25.5" x2="184" y2="25.5" gradientUnits="userSpaceOnUse">
<stop stop-color="#0E185F"/>
<stop offset="1" stop-color="#2FA4FF"/>
</linearGradient>
</defs>
</svg>
